<svg xmlns="http://www.w3.org/2000/svg" viewBox="0 0 88 88" fill="none">
<polygon points="28,16 36,12 44,16 44,24 36,28 28,24" stroke="#00DBBC" stroke-width="1.5" fill="none" opacity=".6"/>
<polygon points="44,16 52,12 60,16 60,24 52,28 44,24" stroke="#00DBBC" stroke-width="1.5" fill="none" opacity=".6"/>
<polygon points="16,28 24,24 32,28 32,36 24,40 16,36" stroke="#00DBBC" stroke-width="1.5" fill="none" opacity=".5"/>
<polygon points="32,28 40,24 48,28 48,36 40,40 32,36" stroke="#00DBBC" stroke-width="1.5" fill="#00DBBC" fill-opacity=".08"/>
<polygon points="48,28 56,24 64,28 64,36 56,40 48,36" stroke="#00DBBC" stroke-width="1.5" fill="#00DBBC" fill-opacity=".08"/>
<polygon points="64,28 72,24 80,28 80,36 72,40 64,36" stroke="#00DBBC" stroke-width="1.5" fill="none" opacity=".5"/>
<polygon points="8,40 16,36 24,40 24,48 16,52 8,48" stroke="#00DBBC" stroke-width="1.5" fill="none" opacity=".4"/>
<polygon points="24,40 32,36 40,40 40,48 32,52 24,48" stroke="#00DBBC" stroke-width="1.5" fill="#00DBBC" fill-opacity=".12"/>
<polygon points="40,40 48,36 56,40 56,48 48,52 40,48" stroke="#00DBBC" stroke-width="1.8" fill="#00DBBC" fill-opacity=".15"/>
<polygon points="56,40 64,36 72,40 72,48 64,52 56,48" stroke="#00DBBC" stroke-width="1.5" fill="#00DBBC" fill-opacity=".12"/>
<polygon points="72,40 80,36 88,40 88,48 80,52 72,48" stroke="#00DBBC" stroke-width="1.5" fill="none" opacity=".4"/>
<polygon points="16,52 24,48 32,52 32,60 24,64 16,60" stroke="#00DBBC" stroke-width="1.5" fill="none" opacity=".5"/>
<polygon points="32,52 40,48 48,52 48,60 40,64 32,60" stroke="#00DBBC" stroke-width="1.5" fill="#00DBBC" fill-opacity=".08"/>
<polygon points="48,52 56,48 64,52 64,60 56,64 48,60" stroke="#00DBBC" stroke-width="1.5" fill="#00DBBC" fill-opacity=".08"/>
<polygon points="64,52 72,48 80,52 80,60 72,64 64,60" stroke="#00DBBC" stroke-width="1.5" fill="none" opacity=".5"/>
<polygon points="28,64 36,60 44,64 44,72 36,76 28,72" stroke="#00DBBC" stroke-width="1.5" fill="none" opacity=".6"/>
<polygon points="44,64 52,60 60,64 60,72 52,76 44,72" stroke="#00DBBC" stroke-width="1.5" fill="none" opacity=".6"/>
<circle cx="48" cy="44" r="3" fill="#00DBBC" opacity=".8"/>
</svg>
