<svg xmlns="http://www.w3.org/2000/svg" viewBox="0 0 88 88" fill="none">
<rect width="88" height="88" rx="18" fill="#040406"/>
<polygon points="32,28 40,24 48,28 48,36 40,40 32,36" stroke="#00DBBC" stroke-width="2" fill="#00DBBC" fill-opacity=".1"/>
<polygon points="48,28 56,24 64,28 64,36 56,40 48,36" stroke="#00DBBC" stroke-width="2" fill="#00DBBC" fill-opacity=".1"/>
<polygon points="24,40 32,36 40,40 40,48 32,52 24,48" stroke="#00DBBC" stroke-width="2" fill="#00DBBC" fill-opacity=".15"/>
<polygon points="40,40 48,36 56,40 56,48 48,52 40,48" stroke="#00DBBC" stroke-width="2.5" fill="#00DBBC" fill-opacity=".2"/>
<polygon points="56,40 64,36 72,40 72,48 64,52 56,48" stroke="#00DBBC" stroke-width="2" fill="#00DBBC" fill-opacity=".15"/>
<polygon points="32,52 40,48 48,52 48,60 40,64 32,60" stroke="#00DBBC" stroke-width="2" fill="#00DBBC" fill-opacity=".1"/>
<polygon points="48,52 56,48 64,52 64,60 56,64 48,60" stroke="#00DBBC" stroke-width="2" fill="#00DBBC" fill-opacity=".1"/>
<circle cx="48" cy="44" r="4" fill="#00DBBC"/>
</svg>
